<mxfile host="app.diagrams.net" modified="2023-10-26T18:46:34.141Z" agent="Mozilla/5.0 (Windows NT 10.0; Win64; x64) AppleWebKit/537.36 (KHTML, like Gecko) Chrome/118.0.0.0 Safari/537.36" etag="cNuv-IsFkls2T_EEYNK9" version="22.0.8" type="device">
  <diagram name="3 oldal" id="0kHpfGK5qi6aIsd88rtq">
    <mxGraphModel dx="2049" dy="1140" grid="1" gridSize="10" guides="1" tooltips="1" connect="1" arrows="1" fold="1" page="1" pageScale="1" pageWidth="3300" pageHeight="4681" math="0" shadow="0">
      <root>
        <mxCell id="0" />
        <mxCell id="1" parent="0" />
        <mxCell id="i8eWrvjrXMpil1f3y7oo-1" value="Vádlott" style="whiteSpace=wrap;html=1;align=center;" parent="1" vertex="1">
          <mxGeometry x="2300" y="1620" width="100" height="40" as="geometry" />
        </mxCell>
        <mxCell id="i8eWrvjrXMpil1f3y7oo-2" value="Ügyvéd" style="whiteSpace=wrap;html=1;align=center;" parent="1" vertex="1">
          <mxGeometry x="2300" y="1920" width="100" height="40" as="geometry" />
        </mxCell>
        <mxCell id="i8eWrvjrXMpil1f3y7oo-3" value="Bíró" style="whiteSpace=wrap;html=1;align=center;" parent="1" vertex="1">
          <mxGeometry x="2670" y="1920" width="100" height="40" as="geometry" />
        </mxCell>
        <mxCell id="i8eWrvjrXMpil1f3y7oo-4" value="Ügy" style="whiteSpace=wrap;html=1;align=center;" parent="1" vertex="1">
          <mxGeometry x="2670" y="1620" width="100" height="40" as="geometry" />
        </mxCell>
        <mxCell id="i8eWrvjrXMpil1f3y7oo-5" value="Szülidő" style="ellipse;whiteSpace=wrap;html=1;align=center;" parent="1" vertex="1">
          <mxGeometry x="2120" y="1620" width="100" height="40" as="geometry" />
        </mxCell>
        <mxCell id="i8eWrvjrXMpil1f3y7oo-6" value="Lakcím" style="ellipse;whiteSpace=wrap;html=1;align=center;" parent="1" vertex="1">
          <mxGeometry x="2120" y="1570" width="100" height="40" as="geometry" />
        </mxCell>
        <mxCell id="i8eWrvjrXMpil1f3y7oo-7" value="Személyi ig." style="ellipse;whiteSpace=wrap;html=1;align=center;fontStyle=4;" parent="1" vertex="1">
          <mxGeometry x="2120" y="1520" width="100" height="40" as="geometry" />
        </mxCell>
        <mxCell id="i8eWrvjrXMpil1f3y7oo-8" value="Kor" style="ellipse;whiteSpace=wrap;html=1;align=center;dashed=1;" parent="1" vertex="1">
          <mxGeometry x="2120" y="1670" width="100" height="40" as="geometry" />
        </mxCell>
        <mxCell id="i8eWrvjrXMpil1f3y7oo-9" value="Priusz" style="ellipse;whiteSpace=wrap;html=1;align=center;" parent="1" vertex="1">
          <mxGeometry x="2120" y="1720" width="100" height="40" as="geometry" />
        </mxCell>
        <mxCell id="i8eWrvjrXMpil1f3y7oo-10" value="( Név )" style="ellipse;whiteSpace=wrap;html=1;align=center;" parent="1" vertex="1">
          <mxGeometry x="2300" y="1520" width="100" height="40" as="geometry" />
        </mxCell>
        <mxCell id="i8eWrvjrXMpil1f3y7oo-11" value="Vnév" style="ellipse;whiteSpace=wrap;html=1;align=center;" parent="1" vertex="1">
          <mxGeometry x="2240" y="1450" width="100" height="40" as="geometry" />
        </mxCell>
        <mxCell id="i8eWrvjrXMpil1f3y7oo-12" value="Knév" style="ellipse;whiteSpace=wrap;html=1;align=center;" parent="1" vertex="1">
          <mxGeometry x="2370" y="1450" width="100" height="40" as="geometry" />
        </mxCell>
        <mxCell id="i8eWrvjrXMpil1f3y7oo-13" value="Telefonszám" style="ellipse;shape=doubleEllipse;margin=3;whiteSpace=wrap;html=1;align=center;" parent="1" vertex="1">
          <mxGeometry x="2120" y="1895" width="100" height="40" as="geometry" />
        </mxCell>
        <mxCell id="i8eWrvjrXMpil1f3y7oo-14" value="Ügyvédi_ID" style="ellipse;whiteSpace=wrap;html=1;align=center;fontStyle=4;" parent="1" vertex="1">
          <mxGeometry x="2120" y="1945" width="100" height="40" as="geometry" />
        </mxCell>
        <mxCell id="i8eWrvjrXMpil1f3y7oo-15" value="Ügyvéd_Név" style="ellipse;whiteSpace=wrap;html=1;align=center;" parent="1" vertex="1">
          <mxGeometry x="2120" y="1995" width="100" height="40" as="geometry" />
        </mxCell>
        <mxCell id="i8eWrvjrXMpil1f3y7oo-16" value="Szakterület" style="ellipse;whiteSpace=wrap;html=1;align=center;" parent="1" vertex="1">
          <mxGeometry x="2120" y="1845" width="100" height="40" as="geometry" />
        </mxCell>
        <mxCell id="i8eWrvjrXMpil1f3y7oo-17" value="Védi" style="shape=rhombus;perimeter=rhombusPerimeter;whiteSpace=wrap;html=1;align=center;" parent="1" vertex="1">
          <mxGeometry x="2290" y="1760" width="120" height="60" as="geometry" />
        </mxCell>
        <mxCell id="i8eWrvjrXMpil1f3y7oo-18" value="Típus" style="ellipse;whiteSpace=wrap;html=1;align=center;" parent="1" vertex="1">
          <mxGeometry x="2840" y="1595" width="100" height="40" as="geometry" />
        </mxCell>
        <mxCell id="i8eWrvjrXMpil1f3y7oo-19" value="Ügyszám_ID" style="ellipse;whiteSpace=wrap;html=1;align=center;fontStyle=4;" parent="1" vertex="1">
          <mxGeometry x="2840" y="1545" width="100" height="40" as="geometry" />
        </mxCell>
        <mxCell id="i8eWrvjrXMpil1f3y7oo-20" value="Dátum" style="ellipse;whiteSpace=wrap;html=1;align=center;" parent="1" vertex="1">
          <mxGeometry x="2840" y="1645" width="100" height="40" as="geometry" />
        </mxCell>
        <mxCell id="i8eWrvjrXMpil1f3y7oo-21" value="Állapot" style="ellipse;whiteSpace=wrap;html=1;align=center;" parent="1" vertex="1">
          <mxGeometry x="2840" y="1695" width="100" height="40" as="geometry" />
        </mxCell>
        <mxCell id="i8eWrvjrXMpil1f3y7oo-22" value="Bűnös-e" style="shape=rhombus;perimeter=rhombusPerimeter;whiteSpace=wrap;html=1;align=center;" parent="1" vertex="1">
          <mxGeometry x="2480" y="1610" width="120" height="60" as="geometry" />
        </mxCell>
        <mxCell id="i8eWrvjrXMpil1f3y7oo-23" value="Vád" style="ellipse;whiteSpace=wrap;html=1;align=center;" parent="1" vertex="1">
          <mxGeometry x="2490" y="1520" width="100" height="40" as="geometry" />
        </mxCell>
        <mxCell id="i8eWrvjrXMpil1f3y7oo-24" value="Bíró_ID" style="ellipse;whiteSpace=wrap;html=1;align=center;fontStyle=4;" parent="1" vertex="1">
          <mxGeometry x="2840" y="1845" width="100" height="40" as="geometry" />
        </mxCell>
        <mxCell id="i8eWrvjrXMpil1f3y7oo-25" value="Bíró_Név" style="ellipse;whiteSpace=wrap;html=1;align=center;" parent="1" vertex="1">
          <mxGeometry x="2840" y="1895" width="100" height="40" as="geometry" />
        </mxCell>
        <mxCell id="i8eWrvjrXMpil1f3y7oo-26" value="Tapasztalat" style="ellipse;whiteSpace=wrap;html=1;align=center;" parent="1" vertex="1">
          <mxGeometry x="2840" y="1945" width="100" height="40" as="geometry" />
        </mxCell>
        <mxCell id="i8eWrvjrXMpil1f3y7oo-27" value="Tanítványok" style="ellipse;whiteSpace=wrap;html=1;align=center;" parent="1" vertex="1">
          <mxGeometry x="2840" y="1995" width="100" height="40" as="geometry" />
        </mxCell>
        <mxCell id="i8eWrvjrXMpil1f3y7oo-28" value="ítéletet hoz" style="shape=rhombus;perimeter=rhombusPerimeter;whiteSpace=wrap;html=1;align=center;" parent="1" vertex="1">
          <mxGeometry x="2660" y="1760" width="120" height="60" as="geometry" />
        </mxCell>
        <mxCell id="i8eWrvjrXMpil1f3y7oo-29" value="Ügyek száma" style="ellipse;whiteSpace=wrap;html=1;align=center;dashed=1;" parent="1" vertex="1">
          <mxGeometry x="2540" y="1770" width="100" height="40" as="geometry" />
        </mxCell>
        <mxCell id="i8eWrvjrXMpil1f3y7oo-30" value="Ítélet" style="ellipse;whiteSpace=wrap;html=1;align=center;" parent="1" vertex="1">
          <mxGeometry x="2840" y="1770" width="100" height="40" as="geometry" />
        </mxCell>
        <mxCell id="i8eWrvjrXMpil1f3y7oo-31" value="Jegyző" style="whiteSpace=wrap;html=1;align=center;" parent="1" vertex="1">
          <mxGeometry x="2670" y="2200" width="100" height="40" as="geometry" />
        </mxCell>
        <mxCell id="i8eWrvjrXMpil1f3y7oo-32" value="Rögzítés" style="shape=rhombus;perimeter=rhombusPerimeter;whiteSpace=wrap;html=1;align=center;" parent="1" vertex="1">
          <mxGeometry x="2660" y="2050" width="120" height="60" as="geometry" />
        </mxCell>
        <mxCell id="i8eWrvjrXMpil1f3y7oo-33" value="Jegyző_ID" style="ellipse;whiteSpace=wrap;html=1;align=center;fontStyle=4;" parent="1" vertex="1">
          <mxGeometry x="2840" y="2125" width="100" height="40" as="geometry" />
        </mxCell>
        <mxCell id="i8eWrvjrXMpil1f3y7oo-34" value="Jegyző_Név" style="ellipse;whiteSpace=wrap;html=1;align=center;" parent="1" vertex="1">
          <mxGeometry x="2840" y="2175" width="100" height="40" as="geometry" />
        </mxCell>
        <mxCell id="i8eWrvjrXMpil1f3y7oo-35" value="Munkaidő" style="ellipse;whiteSpace=wrap;html=1;align=center;" parent="1" vertex="1">
          <mxGeometry x="2840" y="2225" width="100" height="40" as="geometry" />
        </mxCell>
        <mxCell id="i8eWrvjrXMpil1f3y7oo-36" value="Nyelvtudás" style="ellipse;whiteSpace=wrap;html=1;align=center;" parent="1" vertex="1">
          <mxGeometry x="2840" y="2275" width="100" height="40" as="geometry" />
        </mxCell>
        <mxCell id="i8eWrvjrXMpil1f3y7oo-37" value="" style="endArrow=none;html=1;rounded=0;exitX=1;exitY=0.5;exitDx=0;exitDy=0;entryX=0.25;entryY=1;entryDx=0;entryDy=0;" parent="1" source="i8eWrvjrXMpil1f3y7oo-9" target="i8eWrvjrXMpil1f3y7oo-1" edge="1">
          <mxGeometry relative="1" as="geometry">
            <mxPoint x="2340" y="1690" as="sourcePoint" />
            <mxPoint x="2310" y="1690" as="targetPoint" />
          </mxGeometry>
        </mxCell>
        <mxCell id="i8eWrvjrXMpil1f3y7oo-38" value="" style="endArrow=none;html=1;rounded=0;entryX=0;entryY=0.5;entryDx=0;entryDy=0;exitX=1;exitY=0.5;exitDx=0;exitDy=0;" parent="1" source="i8eWrvjrXMpil1f3y7oo-8" target="i8eWrvjrXMpil1f3y7oo-1" edge="1">
          <mxGeometry relative="1" as="geometry">
            <mxPoint x="2240" y="1695" as="sourcePoint" />
            <mxPoint x="2300" y="1595" as="targetPoint" />
          </mxGeometry>
        </mxCell>
        <mxCell id="i8eWrvjrXMpil1f3y7oo-39" value="" style="endArrow=none;html=1;rounded=0;exitX=1;exitY=0.5;exitDx=0;exitDy=0;entryX=0;entryY=0.5;entryDx=0;entryDy=0;" parent="1" source="i8eWrvjrXMpil1f3y7oo-5" target="i8eWrvjrXMpil1f3y7oo-1" edge="1">
          <mxGeometry relative="1" as="geometry">
            <mxPoint x="2240" y="1760" as="sourcePoint" />
            <mxPoint x="2320" y="1660" as="targetPoint" />
          </mxGeometry>
        </mxCell>
        <mxCell id="i8eWrvjrXMpil1f3y7oo-40" value="" style="endArrow=none;html=1;rounded=0;exitX=0;exitY=0.5;exitDx=0;exitDy=0;entryX=1;entryY=0.5;entryDx=0;entryDy=0;" parent="1" source="i8eWrvjrXMpil1f3y7oo-1" target="i8eWrvjrXMpil1f3y7oo-6" edge="1">
          <mxGeometry relative="1" as="geometry">
            <mxPoint x="2250" y="1770" as="sourcePoint" />
            <mxPoint x="2330" y="1670" as="targetPoint" />
          </mxGeometry>
        </mxCell>
        <mxCell id="i8eWrvjrXMpil1f3y7oo-41" value="" style="endArrow=none;html=1;rounded=0;exitX=0.5;exitY=0;exitDx=0;exitDy=0;entryX=0.5;entryY=1;entryDx=0;entryDy=0;" parent="1" source="i8eWrvjrXMpil1f3y7oo-1" target="i8eWrvjrXMpil1f3y7oo-10" edge="1">
          <mxGeometry relative="1" as="geometry">
            <mxPoint x="2260" y="1780" as="sourcePoint" />
            <mxPoint x="2340" y="1680" as="targetPoint" />
          </mxGeometry>
        </mxCell>
        <mxCell id="i8eWrvjrXMpil1f3y7oo-42" value="" style="endArrow=none;html=1;rounded=0;exitX=1;exitY=0.5;exitDx=0;exitDy=0;entryX=0.25;entryY=0;entryDx=0;entryDy=0;" parent="1" source="i8eWrvjrXMpil1f3y7oo-7" target="i8eWrvjrXMpil1f3y7oo-1" edge="1">
          <mxGeometry relative="1" as="geometry">
            <mxPoint x="2270" y="1790" as="sourcePoint" />
            <mxPoint x="2350" y="1690" as="targetPoint" />
          </mxGeometry>
        </mxCell>
        <mxCell id="i8eWrvjrXMpil1f3y7oo-43" value="" style="endArrow=none;html=1;rounded=0;exitX=0.5;exitY=0;exitDx=0;exitDy=0;entryX=0.5;entryY=1;entryDx=0;entryDy=0;" parent="1" source="i8eWrvjrXMpil1f3y7oo-10" target="i8eWrvjrXMpil1f3y7oo-11" edge="1">
          <mxGeometry relative="1" as="geometry">
            <mxPoint x="2280" y="1800" as="sourcePoint" />
            <mxPoint x="2360" y="1700" as="targetPoint" />
          </mxGeometry>
        </mxCell>
        <mxCell id="i8eWrvjrXMpil1f3y7oo-44" value="" style="endArrow=none;html=1;rounded=0;exitX=0.5;exitY=0;exitDx=0;exitDy=0;entryX=0.5;entryY=1;entryDx=0;entryDy=0;" parent="1" source="i8eWrvjrXMpil1f3y7oo-10" target="i8eWrvjrXMpil1f3y7oo-12" edge="1">
          <mxGeometry relative="1" as="geometry">
            <mxPoint x="2290" y="1810" as="sourcePoint" />
            <mxPoint x="2370" y="1710" as="targetPoint" />
          </mxGeometry>
        </mxCell>
        <mxCell id="i8eWrvjrXMpil1f3y7oo-45" value="" style="endArrow=none;html=1;rounded=0;exitX=1;exitY=0.5;exitDx=0;exitDy=0;entryX=0.25;entryY=0;entryDx=0;entryDy=0;" parent="1" source="i8eWrvjrXMpil1f3y7oo-16" target="i8eWrvjrXMpil1f3y7oo-2" edge="1">
          <mxGeometry relative="1" as="geometry">
            <mxPoint x="2290" y="2015" as="sourcePoint" />
            <mxPoint x="2370" y="1915" as="targetPoint" />
          </mxGeometry>
        </mxCell>
        <mxCell id="i8eWrvjrXMpil1f3y7oo-46" value="" style="endArrow=none;html=1;rounded=0;exitX=1;exitY=0.5;exitDx=0;exitDy=0;entryX=0.25;entryY=1;entryDx=0;entryDy=0;" parent="1" source="i8eWrvjrXMpil1f3y7oo-15" target="i8eWrvjrXMpil1f3y7oo-2" edge="1">
          <mxGeometry relative="1" as="geometry">
            <mxPoint x="2260" y="2120" as="sourcePoint" />
            <mxPoint x="2340" y="2020" as="targetPoint" />
          </mxGeometry>
        </mxCell>
        <mxCell id="i8eWrvjrXMpil1f3y7oo-47" value="" style="endArrow=none;html=1;rounded=0;exitX=1;exitY=0.5;exitDx=0;exitDy=0;entryX=0;entryY=0.5;entryDx=0;entryDy=0;" parent="1" source="i8eWrvjrXMpil1f3y7oo-13" target="i8eWrvjrXMpil1f3y7oo-2" edge="1">
          <mxGeometry relative="1" as="geometry">
            <mxPoint x="2310" y="2035" as="sourcePoint" />
            <mxPoint x="2390" y="1935" as="targetPoint" />
          </mxGeometry>
        </mxCell>
        <mxCell id="i8eWrvjrXMpil1f3y7oo-48" value="" style="endArrow=none;html=1;rounded=0;exitX=1;exitY=0.5;exitDx=0;exitDy=0;entryX=0;entryY=0.5;entryDx=0;entryDy=0;" parent="1" source="i8eWrvjrXMpil1f3y7oo-14" target="i8eWrvjrXMpil1f3y7oo-2" edge="1">
          <mxGeometry relative="1" as="geometry">
            <mxPoint x="2320" y="2045" as="sourcePoint" />
            <mxPoint x="2400" y="1945" as="targetPoint" />
          </mxGeometry>
        </mxCell>
        <mxCell id="i8eWrvjrXMpil1f3y7oo-49" value="" style="endArrow=none;html=1;rounded=0;exitX=0.75;exitY=0;exitDx=0;exitDy=0;entryX=0;entryY=0.5;entryDx=0;entryDy=0;" parent="1" source="i8eWrvjrXMpil1f3y7oo-3" target="i8eWrvjrXMpil1f3y7oo-24" edge="1">
          <mxGeometry relative="1" as="geometry">
            <mxPoint x="2200" y="2070" as="sourcePoint" />
            <mxPoint x="2280" y="1970" as="targetPoint" />
          </mxGeometry>
        </mxCell>
        <mxCell id="i8eWrvjrXMpil1f3y7oo-50" value="" style="endArrow=none;html=1;rounded=0;exitX=0.75;exitY=1;exitDx=0;exitDy=0;entryX=0;entryY=0.5;entryDx=0;entryDy=0;" parent="1" source="i8eWrvjrXMpil1f3y7oo-3" target="i8eWrvjrXMpil1f3y7oo-27" edge="1">
          <mxGeometry relative="1" as="geometry">
            <mxPoint x="2210" y="2080" as="sourcePoint" />
            <mxPoint x="2290" y="1980" as="targetPoint" />
          </mxGeometry>
        </mxCell>
        <mxCell id="i8eWrvjrXMpil1f3y7oo-51" value="" style="endArrow=none;html=1;rounded=0;exitX=1;exitY=0.5;exitDx=0;exitDy=0;entryX=0;entryY=0.5;entryDx=0;entryDy=0;" parent="1" source="i8eWrvjrXMpil1f3y7oo-3" target="i8eWrvjrXMpil1f3y7oo-25" edge="1">
          <mxGeometry relative="1" as="geometry">
            <mxPoint x="2570" y="2100" as="sourcePoint" />
            <mxPoint x="2650" y="2000" as="targetPoint" />
          </mxGeometry>
        </mxCell>
        <mxCell id="i8eWrvjrXMpil1f3y7oo-52" value="" style="endArrow=none;html=1;rounded=0;exitX=1;exitY=0.5;exitDx=0;exitDy=0;entryX=0;entryY=0.5;entryDx=0;entryDy=0;" parent="1" source="i8eWrvjrXMpil1f3y7oo-3" target="i8eWrvjrXMpil1f3y7oo-26" edge="1">
          <mxGeometry relative="1" as="geometry">
            <mxPoint x="2580" y="2110" as="sourcePoint" />
            <mxPoint x="2660" y="2010" as="targetPoint" />
          </mxGeometry>
        </mxCell>
        <mxCell id="i8eWrvjrXMpil1f3y7oo-53" value="" style="endArrow=none;html=1;rounded=0;exitX=0.75;exitY=0;exitDx=0;exitDy=0;entryX=0;entryY=0.5;entryDx=0;entryDy=0;" parent="1" source="i8eWrvjrXMpil1f3y7oo-31" target="i8eWrvjrXMpil1f3y7oo-33" edge="1">
          <mxGeometry relative="1" as="geometry">
            <mxPoint x="2590" y="2120" as="sourcePoint" />
            <mxPoint x="2670" y="2020" as="targetPoint" />
          </mxGeometry>
        </mxCell>
        <mxCell id="i8eWrvjrXMpil1f3y7oo-54" value="" style="endArrow=none;html=1;rounded=0;exitX=1;exitY=0.5;exitDx=0;exitDy=0;entryX=0;entryY=0.5;entryDx=0;entryDy=0;" parent="1" source="i8eWrvjrXMpil1f3y7oo-31" target="i8eWrvjrXMpil1f3y7oo-34" edge="1">
          <mxGeometry relative="1" as="geometry">
            <mxPoint x="2600" y="2130" as="sourcePoint" />
            <mxPoint x="2680" y="2030" as="targetPoint" />
          </mxGeometry>
        </mxCell>
        <mxCell id="i8eWrvjrXMpil1f3y7oo-55" value="" style="endArrow=none;html=1;rounded=0;exitX=1;exitY=0.5;exitDx=0;exitDy=0;entryX=0;entryY=0.5;entryDx=0;entryDy=0;" parent="1" source="i8eWrvjrXMpil1f3y7oo-31" target="i8eWrvjrXMpil1f3y7oo-35" edge="1">
          <mxGeometry relative="1" as="geometry">
            <mxPoint x="2610" y="2140" as="sourcePoint" />
            <mxPoint x="2690" y="2040" as="targetPoint" />
          </mxGeometry>
        </mxCell>
        <mxCell id="i8eWrvjrXMpil1f3y7oo-56" value="" style="endArrow=none;html=1;rounded=0;exitX=0.75;exitY=1;exitDx=0;exitDy=0;entryX=0;entryY=0.5;entryDx=0;entryDy=0;" parent="1" source="i8eWrvjrXMpil1f3y7oo-31" target="i8eWrvjrXMpil1f3y7oo-36" edge="1">
          <mxGeometry relative="1" as="geometry">
            <mxPoint x="2620" y="2150" as="sourcePoint" />
            <mxPoint x="2700" y="2050" as="targetPoint" />
          </mxGeometry>
        </mxCell>
        <mxCell id="i8eWrvjrXMpil1f3y7oo-57" value="" style="endArrow=none;html=1;rounded=0;exitX=0.75;exitY=1;exitDx=0;exitDy=0;entryX=0;entryY=0.5;entryDx=0;entryDy=0;" parent="1" source="i8eWrvjrXMpil1f3y7oo-4" target="i8eWrvjrXMpil1f3y7oo-21" edge="1">
          <mxGeometry relative="1" as="geometry">
            <mxPoint x="2635" y="1600" as="sourcePoint" />
            <mxPoint x="2740" y="1545" as="targetPoint" />
          </mxGeometry>
        </mxCell>
        <mxCell id="i8eWrvjrXMpil1f3y7oo-58" value="" style="endArrow=none;html=1;rounded=0;exitX=0.75;exitY=0;exitDx=0;exitDy=0;entryX=0;entryY=0.5;entryDx=0;entryDy=0;" parent="1" source="i8eWrvjrXMpil1f3y7oo-4" target="i8eWrvjrXMpil1f3y7oo-19" edge="1">
          <mxGeometry relative="1" as="geometry">
            <mxPoint x="2645" y="1610" as="sourcePoint" />
            <mxPoint x="2750" y="1555" as="targetPoint" />
          </mxGeometry>
        </mxCell>
        <mxCell id="i8eWrvjrXMpil1f3y7oo-59" value="" style="endArrow=none;html=1;rounded=0;exitX=1;exitY=0.5;exitDx=0;exitDy=0;entryX=0;entryY=0.5;entryDx=0;entryDy=0;" parent="1" source="i8eWrvjrXMpil1f3y7oo-4" target="i8eWrvjrXMpil1f3y7oo-18" edge="1">
          <mxGeometry relative="1" as="geometry">
            <mxPoint x="2655" y="1620" as="sourcePoint" />
            <mxPoint x="2760" y="1565" as="targetPoint" />
          </mxGeometry>
        </mxCell>
        <mxCell id="i8eWrvjrXMpil1f3y7oo-60" value="" style="endArrow=none;html=1;rounded=0;exitX=1;exitY=0.5;exitDx=0;exitDy=0;entryX=0;entryY=0.5;entryDx=0;entryDy=0;" parent="1" source="i8eWrvjrXMpil1f3y7oo-4" target="i8eWrvjrXMpil1f3y7oo-20" edge="1">
          <mxGeometry relative="1" as="geometry">
            <mxPoint x="2665" y="1630" as="sourcePoint" />
            <mxPoint x="2770" y="1575" as="targetPoint" />
          </mxGeometry>
        </mxCell>
        <mxCell id="i8eWrvjrXMpil1f3y7oo-61" value="" style="endArrow=none;html=1;rounded=0;exitX=1;exitY=0.5;exitDx=0;exitDy=0;entryX=0;entryY=0.5;entryDx=0;entryDy=0;" parent="1" source="i8eWrvjrXMpil1f3y7oo-29" target="i8eWrvjrXMpil1f3y7oo-28" edge="1">
          <mxGeometry relative="1" as="geometry">
            <mxPoint x="2675" y="1640" as="sourcePoint" />
            <mxPoint x="2780" y="1585" as="targetPoint" />
          </mxGeometry>
        </mxCell>
        <mxCell id="i8eWrvjrXMpil1f3y7oo-62" value="" style="endArrow=none;html=1;rounded=0;exitX=1;exitY=0.5;exitDx=0;exitDy=0;entryX=0;entryY=0.5;entryDx=0;entryDy=0;" parent="1" source="i8eWrvjrXMpil1f3y7oo-28" target="i8eWrvjrXMpil1f3y7oo-30" edge="1">
          <mxGeometry relative="1" as="geometry">
            <mxPoint x="2685" y="1650" as="sourcePoint" />
            <mxPoint x="2790" y="1595" as="targetPoint" />
          </mxGeometry>
        </mxCell>
        <mxCell id="i8eWrvjrXMpil1f3y7oo-63" value="" style="endArrow=none;html=1;rounded=0;exitX=0.5;exitY=0;exitDx=0;exitDy=0;entryX=0.5;entryY=1;entryDx=0;entryDy=0;" parent="1" source="i8eWrvjrXMpil1f3y7oo-22" target="i8eWrvjrXMpil1f3y7oo-23" edge="1">
          <mxGeometry relative="1" as="geometry">
            <mxPoint x="2715" y="1645" as="sourcePoint" />
            <mxPoint x="2820" y="1590" as="targetPoint" />
          </mxGeometry>
        </mxCell>
        <mxCell id="i8eWrvjrXMpil1f3y7oo-82" value="" style="fontSize=12;html=1;endArrow=ERone;endFill=1;rounded=0;exitX=0.5;exitY=1;exitDx=0;exitDy=0;entryX=0.5;entryY=0;entryDx=0;entryDy=0;" parent="1" source="i8eWrvjrXMpil1f3y7oo-17" target="i8eWrvjrXMpil1f3y7oo-2" edge="1">
          <mxGeometry width="100" height="100" relative="1" as="geometry">
            <mxPoint x="2500" y="1950" as="sourcePoint" />
            <mxPoint x="2600" y="1850" as="targetPoint" />
          </mxGeometry>
        </mxCell>
        <mxCell id="STFvIjJEZPvpUFtnvWwV-1" value="" style="fontSize=12;html=1;endArrow=ERmany;rounded=0;exitX=0.5;exitY=0;exitDx=0;exitDy=0;entryX=0.5;entryY=1;entryDx=0;entryDy=0;" parent="1" source="i8eWrvjrXMpil1f3y7oo-17" target="i8eWrvjrXMpil1f3y7oo-1" edge="1">
          <mxGeometry width="100" height="100" relative="1" as="geometry">
            <mxPoint x="2380" y="1900" as="sourcePoint" />
            <mxPoint x="2480" y="1800" as="targetPoint" />
          </mxGeometry>
        </mxCell>
        <mxCell id="STFvIjJEZPvpUFtnvWwV-2" value="" style="fontSize=12;html=1;endArrow=ERmany;rounded=0;exitX=0;exitY=0.5;exitDx=0;exitDy=0;entryX=1;entryY=0.5;entryDx=0;entryDy=0;" parent="1" source="i8eWrvjrXMpil1f3y7oo-22" target="i8eWrvjrXMpil1f3y7oo-1" edge="1">
          <mxGeometry width="100" height="100" relative="1" as="geometry">
            <mxPoint x="2360" y="1820" as="sourcePoint" />
            <mxPoint x="2360" y="1670" as="targetPoint" />
          </mxGeometry>
        </mxCell>
        <mxCell id="STFvIjJEZPvpUFtnvWwV-3" value="" style="fontSize=12;html=1;endArrow=ERmany;rounded=0;exitX=1;exitY=0.5;exitDx=0;exitDy=0;entryX=0;entryY=0.5;entryDx=0;entryDy=0;" parent="1" source="i8eWrvjrXMpil1f3y7oo-22" target="i8eWrvjrXMpil1f3y7oo-4" edge="1">
          <mxGeometry width="100" height="100" relative="1" as="geometry">
            <mxPoint x="2370" y="1830" as="sourcePoint" />
            <mxPoint x="2370" y="1680" as="targetPoint" />
          </mxGeometry>
        </mxCell>
        <mxCell id="STFvIjJEZPvpUFtnvWwV-4" value="" style="fontSize=12;html=1;endArrow=ERmany;rounded=0;exitX=0.5;exitY=0;exitDx=0;exitDy=0;entryX=0.5;entryY=1;entryDx=0;entryDy=0;" parent="1" source="i8eWrvjrXMpil1f3y7oo-28" target="i8eWrvjrXMpil1f3y7oo-4" edge="1">
          <mxGeometry width="100" height="100" relative="1" as="geometry">
            <mxPoint x="2250" y="1855" as="sourcePoint" />
            <mxPoint x="2250" y="1705" as="targetPoint" />
          </mxGeometry>
        </mxCell>
        <mxCell id="STFvIjJEZPvpUFtnvWwV-5" value="" style="fontSize=12;html=1;endArrow=ERone;endFill=1;rounded=0;exitX=0.5;exitY=1;exitDx=0;exitDy=0;entryX=0.5;entryY=0;entryDx=0;entryDy=0;" parent="1" source="i8eWrvjrXMpil1f3y7oo-28" target="i8eWrvjrXMpil1f3y7oo-3" edge="1">
          <mxGeometry width="100" height="100" relative="1" as="geometry">
            <mxPoint x="2740" y="1895" as="sourcePoint" />
            <mxPoint x="2740" y="2045" as="targetPoint" />
          </mxGeometry>
        </mxCell>
        <mxCell id="STFvIjJEZPvpUFtnvWwV-6" value="" style="fontSize=12;html=1;endArrow=ERone;endFill=1;rounded=0;exitX=0.5;exitY=0;exitDx=0;exitDy=0;entryX=0.5;entryY=1;entryDx=0;entryDy=0;" parent="1" source="i8eWrvjrXMpil1f3y7oo-32" target="i8eWrvjrXMpil1f3y7oo-3" edge="1">
          <mxGeometry width="100" height="100" relative="1" as="geometry">
            <mxPoint x="2560" y="2215" as="sourcePoint" />
            <mxPoint x="2560" y="2365" as="targetPoint" />
          </mxGeometry>
        </mxCell>
        <mxCell id="STFvIjJEZPvpUFtnvWwV-7" value="" style="fontSize=12;html=1;endArrow=ERone;endFill=1;rounded=0;exitX=0.5;exitY=1;exitDx=0;exitDy=0;entryX=0.5;entryY=0;entryDx=0;entryDy=0;" parent="1" source="i8eWrvjrXMpil1f3y7oo-32" target="i8eWrvjrXMpil1f3y7oo-31" edge="1">
          <mxGeometry width="100" height="100" relative="1" as="geometry">
            <mxPoint x="2740" y="2285" as="sourcePoint" />
            <mxPoint x="2740" y="2435" as="targetPoint" />
          </mxGeometry>
        </mxCell>
      </root>
    </mxGraphModel>
  </diagram>
</mxfile>
